<?xml version="1.0" standalone="no"?>
<!DOCTYPE svg PUBLIC "-//W3C//DTD SVG 20010904//EN"
 "http://www.w3.org/TR/2001/REC-SVG-20010904/DTD/svg10.dtd">
<svg version="1.0" xmlns="http://www.w3.org/2000/svg"
 width="138.000000pt" height="138.000000pt" viewBox="0 0 138.000000 138.000000"
 preserveAspectRatio="xMidYMid meet">
<metadata>
Created by potrace 1.11, written by Peter Selinger 2001-2013
</metadata>
<g transform="translate(0.000000,138.000000) scale(0.100000,-0.100000)"
fill="#000000" stroke="none">
<path d="M490 1310 c-122 -31 -298 -147 -349 -230 -26 -44 -27 -86 -1 -175 30
-105 105 -444 134 -609 7 -37 74 -126 95 -126 7 0 9 -4 6 -10 -3 -5 1 -10 10
-10 10 0 13 -5 9 -12 -4 -6 -3 -8 3 -5 5 3 26 -5 46 -18 20 -14 40 -25 44 -25
5 0 19 -8 33 -17 24 -17 34 -20 97 -27 17 -2 36 -7 42 -10 6 -4 11 -3 11 2 0
4 18 7 40 6 25 -1 40 2 40 10 0 6 5 4 10 -4 7 -12 10 -12 10 -1 0 7 6 11 15 8
8 -4 17 -1 21 5 5 7 2 8 -6 3 -8 -5 -11 -4 -6 3 3 6 15 9 25 7 12 -2 21 3 24
16 3 12 11 17 21 13 10 -4 18 0 22 10 3 9 10 14 14 11 5 -3 11 4 15 15 4 11 9
18 13 16 4 -2 13 2 20 10 7 8 10 14 7 14 -4 0 1 7 9 16 9 8 13 21 9 27 -3 7
-2 9 2 4 5 -4 17 5 27 20 10 16 22 29 28 29 5 1 15 2 21 3 5 0 7 7 3 14 -5 9
-4 9 6 0 11 -10 18 -9 34 5 19 16 19 16 12 -2 -7 -19 -6 -19 14 -1 11 10 23
15 26 12 4 -3 13 1 21 9 9 8 22 13 29 10 8 -3 13 -2 13 2 -3 18 2 32 11 32 12
0 50 36 50 48 0 19 12 42 19 37 5 -2 7 9 6 25 -1 17 1 32 5 35 5 3 6 14 3 25
-3 12 0 20 7 20 10 0 9 4 -1 16 -10 13 -10 17 0 24 11 6 11 9 0 13 -10 4 -10
6 -2 6 9 1 10 8 3 25 -5 13 -6 27 -3 30 4 3 1 6 -6 6 -7 0 -9 5 -6 10 3 6 1
10 -6 10 -7 0 -9 3 -6 6 10 11 -61 62 -111 80 -83 29 -112 44 -122 64 -8 15
-8 20 2 20 10 0 10 2 -1 9 -9 6 -10 11 -2 15 6 4 11 12 11 17 0 6 -4 8 -8 5
-4 -2 -8 4 -8 14 0 10 3 17 7 14 4 -2 7 18 7 44 1 26 6 48 12 50 5 2 7 9 3 15
-4 7 -8 26 -8 43 -1 38 -49 92 -113 127 -26 14 -96 42 -157 63 -117 40 -232
53 -305 34z m616 -659 c57 -28 70 -59 65 -158 -1 -22 -9 -38 -24 -48 -27 -17
-105 -27 -113 -14 -3 5 1 9 8 10 10 0 10 2 1 6 -10 3 -10 10 -2 25 8 15 8 19
0 14 -8 -5 -8 0 -1 18 7 18 6 26 -1 26 -8 0 -7 5 1 15 10 12 10 15 -1 15 -10
0 -10 3 -1 12 8 8 9 15 1 25 -9 10 -8 13 2 13 10 0 10 3 1 12 -7 7 -8 17 -1
30 12 23 16 22 65 -1z"/>
</g>
</svg>
